<svg width="196" height="128" viewBox="0 0 196 128" fill="none" xmlns="http://www.w3.org/2000/svg">
<path d="M0.48 90L5.76 72.72H10.632L15.912 90H12.552L7.848 74.76H8.472L3.84 90H0.48ZM3.648 86.4V83.352H12.768V86.4H3.648ZM24.4228 90.36C23.1348 90.36 22.0588 90.06 21.1948 89.46C20.3308 88.86 19.6788 88.044 19.2388 87.012C18.8068 85.98 18.5908 84.816 18.5908 83.52C18.5908 82.224 18.8068 81.06 19.2388 80.028C19.6708 78.996 20.3068 78.18 21.1468 77.58C21.9868 76.98 23.0228 76.68 24.2548 76.68C25.4948 76.68 26.5748 76.976 27.4948 77.568C28.4148 78.16 29.1268 78.972 29.6308 80.004C30.1428 81.028 30.3988 82.2 30.3988 83.52C30.3988 84.816 30.1468 85.98 29.6428 87.012C29.1468 88.044 28.4508 88.86 27.5548 89.46C26.6588 90.06 25.6148 90.36 24.4228 90.36ZM18.0388 95.76V77.04H20.9188V85.92H21.3268V95.76H18.0388ZM23.8948 87.456C24.5988 87.456 25.1748 87.28 25.6228 86.928C26.0708 86.576 26.4028 86.104 26.6188 85.512C26.8348 84.912 26.9428 84.248 26.9428 83.52C26.9428 82.8 26.8308 82.144 26.6068 81.552C26.3828 80.952 26.0348 80.476 25.5628 80.124C25.0988 79.764 24.5028 79.584 23.7748 79.584C23.0948 79.584 22.5428 79.748 22.1188 80.076C21.7028 80.404 21.3988 80.864 21.2068 81.456C21.0148 82.048 20.9188 82.736 20.9188 83.52C20.9188 84.304 21.0148 84.992 21.2068 85.584C21.3988 86.176 21.7108 86.636 22.1428 86.964C22.5828 87.292 23.1668 87.456 23.8948 87.456ZM39.3994 90.36C38.1114 90.36 37.0354 90.06 36.1714 89.46C35.3074 88.86 34.6554 88.044 34.2154 87.012C33.7834 85.98 33.5674 84.816 33.5674 83.52C33.5674 82.224 33.7834 81.06 34.2154 80.028C34.6474 78.996 35.2834 78.18 36.1234 77.58C36.9634 76.98 37.9994 76.68 39.2314 76.68C40.4714 76.68 41.5514 76.976 42.4714 77.568C43.3914 78.16 44.1034 78.972 44.6074 80.004C45.1194 81.028 45.3754 82.2 45.3754 83.52C45.3754 84.816 45.1234 85.98 44.6194 87.012C44.1234 88.044 43.4274 88.86 42.5314 89.46C41.6354 90.06 40.5914 90.36 39.3994 90.36ZM33.0154 95.76V77.04H35.8954V85.92H36.3034V95.76H33.0154ZM38.8714 87.456C39.5754 87.456 40.1514 87.28 40.5994 86.928C41.0474 86.576 41.3794 86.104 41.5954 85.512C41.8114 84.912 41.9194 84.248 41.9194 83.52C41.9194 82.8 41.8074 82.144 41.5834 81.552C41.3594 80.952 41.0114 80.476 40.5394 80.124C40.0754 79.764 39.4794 79.584 38.7514 79.584C38.0714 79.584 37.5194 79.748 37.0954 80.076C36.6794 80.404 36.3754 80.864 36.1834 81.456C35.9914 82.048 35.8954 82.736 35.8954 83.52C35.8954 84.304 35.9914 84.992 36.1834 85.584C36.3754 86.176 36.6874 86.636 37.1194 86.964C37.5594 87.292 38.1434 87.456 38.8714 87.456ZM58.6526 90.36C57.3486 90.36 56.2046 90.068 55.2206 89.484C54.2366 88.9 53.4686 88.096 52.9166 87.072C52.3726 86.04 52.1006 84.856 52.1006 83.52C52.1006 82.168 52.3806 80.98 52.9406 79.956C53.5006 78.924 54.2726 78.12 55.2566 77.544C56.2406 76.968 57.3726 76.68 58.6526 76.68C59.9566 76.68 61.1006 76.972 62.0846 77.556C63.0766 78.14 63.8486 78.948 64.4006 79.98C64.9526 81.004 65.2286 82.184 65.2286 83.52C65.2286 84.864 64.9486 86.052 64.3886 87.084C63.8366 88.108 63.0646 88.912 62.0726 89.496C61.0886 90.072 59.9486 90.36 58.6526 90.36ZM58.6526 87.312C59.7006 87.312 60.4806 86.96 60.9926 86.256C61.5126 85.544 61.7726 84.632 61.7726 83.52C61.7726 82.368 61.5086 81.448 60.9806 80.76C60.4606 80.072 59.6846 79.728 58.6526 79.728C57.9406 79.728 57.3566 79.888 56.9006 80.208C56.4446 80.528 56.1046 80.972 55.8806 81.54C55.6646 82.108 55.5566 82.768 55.5566 83.52C55.5566 84.68 55.8166 85.604 56.3366 86.292C56.8646 86.972 57.6366 87.312 58.6526 87.312ZM68.9475 90V77.088C68.9475 76.76 68.9555 76.388 68.9715 75.972C68.9875 75.556 69.0515 75.136 69.1635 74.712C69.2835 74.288 69.4995 73.904 69.8115 73.56C70.2115 73.112 70.6435 72.808 71.1075 72.648C71.5795 72.48 72.0355 72.392 72.4755 72.384C72.9155 72.368 73.2915 72.36 73.6035 72.36H75.2115V75H73.7235C73.2115 75 72.8315 75.132 72.5835 75.396C72.3355 75.652 72.2115 75.96 72.2115 76.32V90H68.9475ZM66.9075 79.56V77.04H75.2115V79.56H66.9075ZM89.706 90C88.81 90.168 87.93 90.24 87.066 90.216C86.21 90.2 85.442 90.052 84.762 89.772C84.09 89.484 83.578 89.024 83.226 88.392C82.906 87.8 82.738 87.2 82.722 86.592C82.706 85.976 82.698 85.28 82.698 84.504V73.44H85.962V84.312C85.962 84.816 85.966 85.272 85.974 85.68C85.99 86.08 86.074 86.4 86.226 86.64C86.514 87.096 86.974 87.344 87.606 87.384C88.238 87.424 88.938 87.392 89.706 87.288V90ZM80.49 79.56V77.04H89.706V79.56H80.49ZM101.426 90V83.88C101.426 83.584 101.41 83.208 101.378 82.752C101.346 82.288 101.246 81.824 101.078 81.36C100.91 80.896 100.634 80.508 100.25 80.196C99.8741 79.884 99.3381 79.728 98.6421 79.728C98.3621 79.728 98.0621 79.772 97.7421 79.86C97.4221 79.948 97.1221 80.12 96.8421 80.376C96.5621 80.624 96.3301 80.992 96.1461 81.48C95.9701 81.968 95.8821 82.616 95.8821 83.424L94.0101 82.536C94.0101 81.512 94.2181 80.552 94.6341 79.656C95.0501 78.76 95.6741 78.036 96.5061 77.484C97.3461 76.932 98.4021 76.656 99.6741 76.656C100.69 76.656 101.518 76.828 102.158 77.172C102.798 77.516 103.294 77.952 103.646 78.48C104.006 79.008 104.262 79.56 104.414 80.136C104.566 80.704 104.658 81.224 104.69 81.696C104.722 82.168 104.738 82.512 104.738 82.728V90H101.426ZM92.5701 90V72.72H95.4741V81.6H95.8821V90H92.5701ZM113.876 90.36C112.548 90.36 111.376 90.076 110.36 89.508C109.352 88.932 108.56 88.144 107.984 87.144C107.416 86.136 107.132 84.984 107.132 83.688C107.132 82.272 107.412 81.04 107.972 79.992C108.532 78.944 109.304 78.132 110.288 77.556C111.272 76.972 112.404 76.68 113.684 76.68C115.044 76.68 116.2 77 117.152 77.64C118.104 78.28 118.808 79.18 119.264 80.34C119.72 81.5 119.88 82.864 119.744 84.432H116.516V83.232C116.516 81.912 116.304 80.964 115.88 80.388C115.464 79.804 114.78 79.512 113.828 79.512C112.716 79.512 111.896 79.852 111.368 80.532C110.848 81.204 110.588 82.2 110.588 83.52C110.588 84.728 110.848 85.664 111.368 86.328C111.896 86.984 112.668 87.312 113.684 87.312C114.324 87.312 114.872 87.172 115.328 86.892C115.784 86.612 116.132 86.208 116.372 85.68L119.636 86.616C119.148 87.8 118.376 88.72 117.32 89.376C116.272 90.032 115.124 90.36 113.876 90.36ZM109.58 84.432V82.008H118.172V84.432H109.58ZM127.258 90V72.72H132.85C132.986 72.72 133.266 72.724 133.69 72.732C134.114 72.74 134.522 72.768 134.914 72.816C136.306 72.984 137.486 73.468 138.454 74.268C139.422 75.068 140.158 76.084 140.662 77.316C141.166 78.548 141.418 79.896 141.418 81.36C141.418 82.824 141.166 84.172 140.662 85.404C140.158 86.636 139.422 87.652 138.454 88.452C137.486 89.252 136.306 89.736 134.914 89.904C134.522 89.952 134.114 89.98 133.69 89.988C133.266 89.996 132.986 90 132.85 90H127.258ZM130.57 86.928H132.85C133.066 86.928 133.358 86.924 133.726 86.916C134.094 86.9 134.426 86.864 134.722 86.808C135.474 86.656 136.086 86.304 136.558 85.752C137.038 85.2 137.39 84.536 137.614 83.76C137.846 82.984 137.962 82.184 137.962 81.36C137.962 80.496 137.842 79.676 137.602 78.9C137.37 78.124 137.014 77.468 136.534 76.932C136.054 76.396 135.45 76.056 134.722 75.912C134.426 75.848 134.094 75.812 133.726 75.804C133.358 75.796 133.066 75.792 132.85 75.792H130.57V86.928ZM147.897 90.36C146.969 90.36 146.181 90.184 145.533 89.832C144.893 89.472 144.405 88.996 144.069 88.404C143.741 87.804 143.577 87.144 143.577 86.424C143.577 85.824 143.669 85.276 143.853 84.78C144.037 84.284 144.333 83.848 144.741 83.472C145.157 83.088 145.713 82.768 146.409 82.512C146.889 82.336 147.461 82.18 148.125 82.044C148.789 81.908 149.541 81.78 150.381 81.66C151.221 81.532 152.145 81.392 153.153 81.24L151.977 81.888C151.977 81.12 151.793 80.556 151.425 80.196C151.057 79.836 150.441 79.656 149.577 79.656C149.097 79.656 148.597 79.772 148.077 80.004C147.557 80.236 147.193 80.648 146.985 81.24L144.033 80.304C144.361 79.232 144.977 78.36 145.881 77.688C146.785 77.016 148.017 76.68 149.577 76.68C150.721 76.68 151.737 76.856 152.625 77.208C153.513 77.56 154.185 78.168 154.641 79.032C154.897 79.512 155.049 79.992 155.097 80.472C155.145 80.952 155.169 81.488 155.169 82.08V90H152.313V87.336L152.721 87.888C152.089 88.76 151.405 89.392 150.669 89.784C149.941 90.168 149.017 90.36 147.897 90.36ZM148.593 87.792C149.193 87.792 149.697 87.688 150.105 87.48C150.521 87.264 150.849 87.02 151.089 86.748C151.337 86.476 151.505 86.248 151.593 86.064C151.761 85.712 151.857 85.304 151.881 84.84C151.913 84.368 151.929 83.976 151.929 83.664L152.889 83.904C151.921 84.064 151.137 84.2 150.537 84.312C149.937 84.416 149.453 84.512 149.085 84.6C148.717 84.688 148.393 84.784 148.113 84.888C147.793 85.016 147.533 85.156 147.333 85.308C147.141 85.452 146.997 85.612 146.901 85.788C146.813 85.964 146.769 86.16 146.769 86.376C146.769 86.672 146.841 86.928 146.985 87.144C147.137 87.352 147.349 87.512 147.621 87.624C147.893 87.736 148.217 87.792 148.593 87.792ZM159.219 95.76L161.715 88.896L161.763 90.912L156.123 77.04H159.507L163.299 86.856H162.531L166.299 77.04H169.563L162.243 95.76H159.219Z" fill="#0B0F19"/>
<path d="M1.12 121V112.36H2.176V114.44L1.968 114.168C2.064 113.912 2.18933 113.677 2.344 113.464C2.49867 113.245 2.66667 113.067 2.848 112.928C3.072 112.731 3.33333 112.581 3.632 112.48C3.93067 112.373 4.232 112.312 4.536 112.296C4.84 112.275 5.11733 112.296 5.368 112.36V113.464C5.05333 113.384 4.70933 113.365 4.336 113.408C3.96267 113.451 3.61867 113.6 3.304 113.856C3.016 114.08 2.8 114.349 2.656 114.664C2.512 114.973 2.416 115.304 2.368 115.656C2.32 116.003 2.296 116.347 2.296 116.688V121H1.12ZM9.0295 121.24C8.37883 121.24 7.83217 121.123 7.3895 120.888C6.95217 120.653 6.62417 120.341 6.4055 119.952C6.18683 119.563 6.0775 119.139 6.0775 118.68C6.0775 118.211 6.17083 117.811 6.3575 117.48C6.5495 117.144 6.80817 116.869 7.1335 116.656C7.46417 116.443 7.8455 116.28 8.2775 116.168C8.71483 116.061 9.1975 115.968 9.7255 115.888C10.2588 115.803 10.7788 115.731 11.2855 115.672C11.7975 115.608 12.2455 115.547 12.6295 115.488L12.2135 115.744C12.2295 114.891 12.0642 114.259 11.7175 113.848C11.3708 113.437 10.7682 113.232 9.9095 113.232C9.3175 113.232 8.81617 113.365 8.4055 113.632C8.00017 113.899 7.71483 114.32 7.5495 114.896L6.4055 114.56C6.60283 113.787 7.00017 113.187 7.5975 112.76C8.19483 112.333 8.97083 112.12 9.9255 112.12C10.7148 112.12 11.3842 112.269 11.9335 112.568C12.4882 112.861 12.8802 113.288 13.1095 113.848C13.2162 114.099 13.2855 114.379 13.3175 114.688C13.3495 114.997 13.3655 115.312 13.3655 115.632V121H12.3175V118.832L12.6215 118.96C12.3282 119.701 11.8722 120.267 11.2535 120.656C10.6348 121.045 9.8935 121.24 9.0295 121.24ZM9.1655 120.224C9.71483 120.224 10.1948 120.125 10.6055 119.928C11.0162 119.731 11.3468 119.461 11.5975 119.12C11.8482 118.773 12.0108 118.384 12.0855 117.952C12.1495 117.675 12.1842 117.371 12.1895 117.04C12.1948 116.704 12.1975 116.453 12.1975 116.288L12.6455 116.52C12.2455 116.573 11.8108 116.627 11.3415 116.68C10.8775 116.733 10.4188 116.795 9.9655 116.864C9.5175 116.933 9.11217 117.016 8.7495 117.112C8.50417 117.181 8.26683 117.28 8.0375 117.408C7.80817 117.531 7.61883 117.696 7.4695 117.904C7.3255 118.112 7.2535 118.371 7.2535 118.68C7.2535 118.931 7.31483 119.173 7.4375 119.408C7.5655 119.643 7.76817 119.837 8.0455 119.992C8.32817 120.147 8.7015 120.224 9.1655 120.224ZM20.1521 121C19.6668 121.101 19.1868 121.141 18.7121 121.12C18.2428 121.099 17.8215 120.997 17.4481 120.816C17.0801 120.635 16.8001 120.352 16.6081 119.968C16.4535 119.648 16.3681 119.325 16.3521 119C16.3415 118.669 16.3361 118.293 16.3361 117.872V109.96H17.5041V117.824C17.5041 118.187 17.5068 118.491 17.5121 118.736C17.5228 118.976 17.5788 119.189 17.6801 119.376C17.8721 119.733 18.1761 119.947 18.5921 120.016C19.0135 120.085 19.5335 120.069 20.1521 119.968V121ZM14.4881 113.368V112.36H20.1521V113.368H14.4881ZM22.0144 110.72V109.4H23.1904V110.72H22.0144ZM22.0144 121V112.36H23.1904V121H22.0144ZM31.8288 121V116.592C31.8288 116.112 31.7834 115.672 31.6928 115.272C31.6021 114.867 31.4554 114.515 31.2528 114.216C31.0554 113.912 30.7968 113.677 30.4768 113.512C30.1621 113.347 29.7781 113.264 29.3248 113.264C28.9088 113.264 28.5408 113.336 28.2208 113.48C27.9061 113.624 27.6394 113.832 27.4208 114.104C27.2074 114.371 27.0448 114.696 26.9328 115.08C26.8208 115.464 26.7648 115.901 26.7648 116.392L25.9328 116.208C25.9328 115.323 26.0874 114.579 26.3968 113.976C26.7061 113.373 27.1328 112.917 27.6768 112.608C28.2208 112.299 28.8448 112.144 29.5488 112.144C30.0661 112.144 30.5168 112.224 30.9008 112.384C31.2901 112.544 31.6181 112.76 31.8848 113.032C32.1568 113.304 32.3754 113.616 32.5408 113.968C32.7061 114.315 32.8261 114.685 32.9008 115.08C32.9754 115.469 33.0128 115.859 33.0128 116.248V121H31.8288ZM25.5808 121V112.36H26.6448V114.488H26.7648V121H25.5808ZM38.5208 125.08C38.0781 125.08 37.6408 125.013 37.2088 124.88C36.7821 124.752 36.3874 124.547 36.0247 124.264C35.6621 123.987 35.3581 123.624 35.1128 123.176L36.1768 122.584C36.4168 123.064 36.7528 123.408 37.1848 123.616C37.6221 123.829 38.0674 123.936 38.5208 123.936C39.1448 123.936 39.6488 123.819 40.0328 123.584C40.4221 123.355 40.7048 123.013 40.8808 122.56C41.0568 122.107 41.1421 121.541 41.1368 120.864V118.56H41.2728V112.36H42.3208V120.88C42.3208 121.125 42.3128 121.36 42.2968 121.584C42.2861 121.813 42.2621 122.037 42.2248 122.256C42.1234 122.901 41.9128 123.432 41.5928 123.848C41.2781 124.264 40.8621 124.573 40.3448 124.776C39.8328 124.979 39.2248 125.08 38.5208 125.08ZM38.4408 121.24C37.6354 121.24 36.9474 121.04 36.3768 120.64C35.8061 120.235 35.3688 119.688 35.0648 119C34.7608 118.312 34.6088 117.536 34.6088 116.672C34.6088 115.813 34.7581 115.04 35.0568 114.352C35.3608 113.664 35.7954 113.12 36.3608 112.72C36.9261 112.32 37.6034 112.12 38.3928 112.12C39.2034 112.12 39.8861 112.317 40.4408 112.712C40.9954 113.107 41.4141 113.648 41.6968 114.336C41.9848 115.019 42.1288 115.797 42.1288 116.672C42.1288 117.531 41.9874 118.307 41.7048 119C41.4221 119.688 41.0061 120.235 40.4568 120.64C39.9074 121.04 39.2354 121.24 38.4408 121.24ZM38.5608 120.144C39.1741 120.144 39.6808 119.995 40.0808 119.696C40.4808 119.397 40.7794 118.987 40.9768 118.464C41.1741 117.936 41.2728 117.339 41.2728 116.672C41.2728 115.995 41.1741 115.397 40.9768 114.88C40.7794 114.357 40.4808 113.949 40.0808 113.656C39.6861 113.363 39.1874 113.216 38.5848 113.216C37.9661 113.216 37.4541 113.368 37.0488 113.672C36.6434 113.976 36.3421 114.389 36.1448 114.912C35.9528 115.435 35.8568 116.021 35.8568 116.672C35.8568 117.328 35.9554 117.92 36.1528 118.448C36.3554 118.971 36.6568 119.384 37.0568 119.688C37.4568 119.992 37.9581 120.144 38.5608 120.144ZM52.8326 121V118.768H47.4406V117.648L51.2966 109.48H52.6166L48.7606 117.648H52.8326V114.288H54.0166V117.648H55.2726V118.768H54.0166V121H52.8326ZM57.1096 121V119.632H58.4776V121H57.1096ZM64.4601 121.24C63.7401 121.24 63.1028 121.096 62.5481 120.808C61.9988 120.52 61.5668 120.117 61.2521 119.6C60.9428 119.077 60.7881 118.467 60.7881 117.768C60.7881 117.053 60.9615 116.419 61.3081 115.864C61.6548 115.304 62.1828 114.88 62.8921 114.592L62.8761 115.056C62.2841 114.837 61.8335 114.48 61.5241 113.984C61.2148 113.488 61.0601 112.939 61.0601 112.336C61.0601 111.696 61.2068 111.147 61.5001 110.688C61.7935 110.224 62.1935 109.867 62.7001 109.616C63.2121 109.365 63.7988 109.24 64.4601 109.24C65.1215 109.24 65.7081 109.365 66.2201 109.616C66.7321 109.867 67.1348 110.224 67.4281 110.688C67.7215 111.147 67.8681 111.696 67.8681 112.336C67.8681 112.939 67.7188 113.485 67.4201 113.976C67.1268 114.467 66.6761 114.827 66.0681 115.056L66.0281 114.592C66.7375 114.875 67.2681 115.296 67.6201 115.856C67.9775 116.416 68.1561 117.053 68.1561 117.768C68.1561 118.467 67.9988 119.077 67.6841 119.6C67.3695 120.117 66.9348 120.52 66.3801 120.808C65.8255 121.096 65.1855 121.24 64.4601 121.24ZM64.4601 120.112C65.1855 120.112 65.7748 119.912 66.2281 119.512C66.6815 119.107 66.9081 118.525 66.9081 117.768C66.9081 117 66.6841 116.419 66.2361 116.024C65.7881 115.624 65.1961 115.424 64.4601 115.424C63.7241 115.424 63.1348 115.624 62.6921 116.024C62.2495 116.419 62.0281 117 62.0281 117.768C62.0281 118.525 62.2521 119.107 62.7001 119.512C63.1481 119.912 63.7348 120.112 64.4601 120.112ZM64.4601 114.288C65.1001 114.288 65.6201 114.125 66.0201 113.8C66.4201 113.469 66.6201 112.981 66.6201 112.336C66.6201 111.691 66.4201 111.208 66.0201 110.888C65.6201 110.563 65.1001 110.4 64.4601 110.4C63.8201 110.4 63.3001 110.563 62.9001 110.888C62.5055 111.208 62.3081 111.691 62.3081 112.336C62.3081 112.981 62.5055 113.469 62.9001 113.8C63.3001 114.125 63.8201 114.288 64.4601 114.288ZM70.0694 122.672L70.1414 122.088C70.3547 122.104 70.5094 122.061 70.6054 121.96C70.7014 121.859 70.76 121.723 70.7814 121.552C70.8027 121.381 70.808 121.197 70.7974 121H70.0694V119.312H71.4374V121.32C71.4374 121.811 71.312 122.179 71.0614 122.424C70.816 122.669 70.4854 122.752 70.0694 122.672ZM80.7785 121.232C80.2078 121.232 79.6825 121.131 79.2025 120.928C78.7225 120.725 78.3092 120.437 77.9625 120.064C77.6158 119.685 77.3625 119.235 77.2025 118.712L78.3225 118.376C78.5145 118.947 78.8292 119.379 79.2665 119.672C79.7092 119.965 80.2078 120.107 80.7625 120.096C81.2745 120.085 81.7145 119.971 82.0825 119.752C82.4558 119.533 82.7412 119.229 82.9385 118.84C83.1358 118.451 83.2345 118 83.2345 117.488C83.2345 116.704 83.0052 116.075 82.5465 115.6C82.0932 115.12 81.4932 114.88 80.7465 114.88C80.5385 114.88 80.3198 114.909 80.0905 114.968C79.8612 115.021 79.6478 115.099 79.4505 115.2L78.8585 114.264L83.3385 110.128L83.5305 110.608H77.6585V109.48H84.3145V110.624L80.4105 114.352L80.3945 113.888C81.1945 113.787 81.8985 113.877 82.5065 114.16C83.1145 114.443 83.5892 114.875 83.9305 115.456C84.2772 116.032 84.4505 116.709 84.4505 117.488C84.4505 118.224 84.2905 118.875 83.9705 119.44C83.6558 120 83.2212 120.44 82.6665 120.76C82.1118 121.075 81.4825 121.232 80.7785 121.232ZM90.2863 121.24C89.5769 121.24 88.9369 121.075 88.3663 120.744C87.8009 120.413 87.3529 119.965 87.0223 119.4C86.6916 118.829 86.5263 118.189 86.5263 117.48V113C86.5263 112.291 86.6916 111.653 87.0223 111.088C87.3529 110.517 87.8009 110.067 88.3663 109.736C88.9369 109.405 89.5769 109.24 90.2863 109.24C90.9956 109.24 91.6329 109.405 92.1983 109.736C92.7689 110.067 93.2196 110.517 93.5503 111.088C93.8809 111.653 94.0463 112.291 94.0463 113V117.48C94.0463 118.189 93.8809 118.829 93.5503 119.4C93.2196 119.965 92.7689 120.413 92.1983 120.744C91.6329 121.075 90.9956 121.24 90.2863 121.24ZM90.2863 120.104C90.7609 120.104 91.1929 119.989 91.5823 119.76C91.9716 119.525 92.2809 119.213 92.5103 118.824C92.7396 118.435 92.8543 118.005 92.8543 117.536V112.944C92.8543 112.469 92.7396 112.037 92.5103 111.648C92.2809 111.259 91.9716 110.949 91.5823 110.72C91.1929 110.485 90.7609 110.368 90.2863 110.368C89.8116 110.368 89.3796 110.485 88.9903 110.72C88.6009 110.949 88.2916 111.259 88.0623 111.648C87.8329 112.037 87.7183 112.469 87.7183 112.944V117.536C87.7183 118.005 87.8329 118.435 88.0623 118.824C88.2916 119.213 88.6009 119.525 88.9903 119.76C89.3796 119.989 89.8116 120.104 90.2863 120.104ZM96.2919 121V109.48H97.4679V114.92L102.724 109.48H104.228L98.8599 115.04L104.668 121H103.132L97.4679 115.24V121H96.2919ZM108.784 118.896V115.744H105.632V114.736H108.784V111.584H109.792V114.736H112.936V115.744H109.792V118.896H108.784ZM118.214 121V112.36H119.27V114.44L119.062 114.168C119.158 113.912 119.283 113.677 119.438 113.464C119.592 113.245 119.76 113.067 119.942 112.928C120.166 112.731 120.427 112.581 120.726 112.48C121.024 112.373 121.326 112.312 121.63 112.296C121.934 112.275 122.211 112.296 122.462 112.36V113.464C122.147 113.384 121.803 113.365 121.43 113.408C121.056 113.451 120.712 113.6 120.398 113.856C120.11 114.08 119.894 114.349 119.75 114.664C119.606 114.973 119.51 115.304 119.462 115.656C119.414 116.003 119.39 116.347 119.39 116.688V121H118.214ZM127.479 121.24C126.636 121.24 125.906 121.053 125.287 120.68C124.674 120.307 124.196 119.781 123.855 119.104C123.514 118.427 123.343 117.632 123.343 116.72C123.343 115.776 123.511 114.96 123.847 114.272C124.183 113.584 124.655 113.053 125.263 112.68C125.876 112.307 126.599 112.12 127.431 112.12C128.284 112.12 129.012 112.317 129.615 112.712C130.218 113.101 130.674 113.661 130.983 114.392C131.292 115.123 131.434 115.995 131.407 117.008H130.207V116.592C130.186 115.472 129.943 114.627 129.479 114.056C129.02 113.485 128.348 113.2 127.463 113.2C126.535 113.2 125.823 113.501 125.327 114.104C124.836 114.707 124.591 115.565 124.591 116.68C124.591 117.768 124.836 118.613 125.327 119.216C125.823 119.813 126.524 120.112 127.431 120.112C128.05 120.112 128.588 119.971 129.047 119.688C129.511 119.4 129.876 118.987 130.143 118.448L131.239 118.872C130.898 119.624 130.394 120.208 129.727 120.624C129.066 121.035 128.316 121.24 127.479 121.24ZM124.175 117.008V116.024H130.775V117.008H124.175ZM135.206 121L132.07 112.36H133.262L135.814 119.464L138.35 112.36H139.558L136.422 121H135.206ZM141.155 110.72V109.4H142.331V110.72H141.155ZM141.155 121V112.36H142.331V121H141.155ZM148.385 121.24C147.543 121.24 146.812 121.053 146.193 120.68C145.58 120.307 145.103 119.781 144.761 119.104C144.42 118.427 144.249 117.632 144.249 116.72C144.249 115.776 144.417 114.96 144.753 114.272C145.089 113.584 145.561 113.053 146.169 112.68C146.783 112.307 147.505 112.12 148.337 112.12C149.191 112.12 149.919 112.317 150.521 112.712C151.124 113.101 151.58 113.661 151.889 114.392C152.199 115.123 152.34 115.995 152.313 117.008H151.113V116.592C151.092 115.472 150.849 114.627 150.385 114.056C149.927 113.485 149.255 113.2 148.369 113.2C147.441 113.2 146.729 113.501 146.233 114.104C145.743 114.707 145.497 115.565 145.497 116.68C145.497 117.768 145.743 118.613 146.233 119.216C146.729 119.813 147.431 120.112 148.337 120.112C148.956 120.112 149.495 119.971 149.953 119.688C150.417 119.4 150.783 118.987 151.049 118.448L152.145 118.872C151.804 119.624 151.3 120.208 150.633 120.624C149.972 121.035 149.223 121.24 148.385 121.24ZM145.081 117.008V116.024H151.681V117.008H145.081ZM155.616 121L152.976 112.352L154.152 112.36L156.2 119.072L158.256 112.36H159.328L161.384 119.072L163.448 112.36H164.616L161.976 121H160.952L158.792 114.12L156.64 121H155.616ZM168.969 121.232C167.956 121.232 167.121 121.013 166.465 120.576C165.814 120.139 165.414 119.531 165.265 118.752L166.465 118.552C166.593 119.043 166.884 119.435 167.337 119.728C167.796 120.016 168.361 120.16 169.033 120.16C169.689 120.16 170.206 120.024 170.585 119.752C170.964 119.475 171.153 119.099 171.153 118.624C171.153 118.357 171.092 118.141 170.969 117.976C170.852 117.805 170.609 117.648 170.241 117.504C169.873 117.36 169.324 117.189 168.593 116.992C167.809 116.779 167.196 116.565 166.753 116.352C166.31 116.139 165.996 115.893 165.809 115.616C165.622 115.333 165.529 114.989 165.529 114.584C165.529 114.093 165.668 113.664 165.945 113.296C166.222 112.923 166.606 112.635 167.097 112.432C167.588 112.224 168.158 112.12 168.809 112.12C169.46 112.12 170.041 112.227 170.553 112.44C171.07 112.648 171.486 112.941 171.801 113.32C172.116 113.699 172.302 114.139 172.361 114.64L171.161 114.856C171.081 114.349 170.828 113.949 170.401 113.656C169.98 113.357 169.444 113.203 168.793 113.192C168.18 113.176 167.681 113.293 167.297 113.544C166.913 113.789 166.721 114.117 166.721 114.528C166.721 114.757 166.79 114.955 166.929 115.12C167.068 115.28 167.318 115.432 167.681 115.576C168.049 115.72 168.572 115.877 169.249 116.048C170.044 116.251 170.668 116.464 171.121 116.688C171.574 116.912 171.897 117.176 172.089 117.48C172.281 117.784 172.377 118.16 172.377 118.608C172.377 119.424 172.073 120.067 171.465 120.536C170.862 121 170.03 121.232 168.969 121.232Z" fill="#565973"/>
<path d="M12.8024 39.3544C12.7272 39.1339 12.5283 38.9781 12.2961 38.96L8.97053 38.6958L7.53145 35.5102C7.43753 35.3008 7.22928 35.1666 7.00003 35.1666C6.77078 35.1666 6.56253 35.3008 6.46861 35.5096L5.02953 38.6958L1.70395 38.96C1.47586 38.9781 1.27928 39.128 1.2017 39.3433C1.12411 39.5585 1.17895 39.7995 1.34286 39.9593L3.80045 42.355L2.93128 46.1187C2.87761 46.3515 2.97153 46.5935 3.16811 46.7295C3.26845 46.7983 3.38395 46.8333 3.50003 46.8333C3.61261 46.8333 3.72578 46.8006 3.82378 46.7353L7.00003 44.6178L10.1763 46.7353C10.3793 46.8706 10.6459 46.8654 10.8442 46.7213C11.0414 46.5772 11.1283 46.3246 11.0612 46.0901L9.99428 42.3568L12.6403 39.9756C12.8135 39.8193 12.8771 39.5755 12.8024 39.3544Z" fill="#FFBA08"/>
<path d="M28.8024 39.3544C28.7272 39.1339 28.5283 38.9781 28.2961 38.96L24.9705 38.6958L23.5314 35.5102C23.4375 35.3008 23.2293 35.1666 23 35.1666C22.7708 35.1666 22.5625 35.3008 22.4686 35.5096L21.0295 38.6958L17.7039 38.96C17.4759 38.9781 17.2793 39.128 17.2017 39.3433C17.1241 39.5585 17.1789 39.7995 17.3429 39.9593L19.8004 42.355L18.9313 46.1187C18.8776 46.3515 18.9715 46.5935 19.1681 46.7295C19.2684 46.7983 19.3839 46.8333 19.5 46.8333C19.6126 46.8333 19.7258 46.8006 19.8238 46.7353L23 44.6178L26.1763 46.7353C26.3793 46.8706 26.6459 46.8654 26.8442 46.7213C27.0414 46.5772 27.1283 46.3246 27.0612 46.0901L25.9943 42.3568L28.6403 39.9756C28.8135 39.8193 28.8771 39.5755 28.8024 39.3544Z" fill="#FFBA08"/>
<path d="M44.8024 39.3544C44.7272 39.1339 44.5283 38.9781 44.2961 38.96L40.9705 38.6958L39.5314 35.5102C39.4375 35.3008 39.2293 35.1666 39 35.1666C38.7708 35.1666 38.5625 35.3008 38.4686 35.5096L37.0295 38.6958L33.7039 38.96C33.4759 38.9781 33.2793 39.128 33.2017 39.3433C33.1241 39.5585 33.1789 39.7995 33.3429 39.9593L35.8004 42.355L34.9313 46.1187C34.8776 46.3515 34.9715 46.5935 35.1681 46.7295C35.2684 46.7983 35.3839 46.8333 35.5 46.8333C35.6126 46.8333 35.7258 46.8006 35.8238 46.7353L39 44.6178L42.1763 46.7353C42.3793 46.8706 42.6459 46.8654 42.8442 46.7213C43.0414 46.5772 43.1283 46.3246 43.0612 46.0901L41.9943 42.3568L44.6403 39.9756C44.8135 39.8193 44.8771 39.5755 44.8024 39.3544Z" fill="#FFBA08"/>
<path d="M60.8024 39.3544C60.7272 39.1339 60.5283 38.9781 60.2961 38.96L56.9705 38.6958L55.5314 35.5102C55.4375 35.3008 55.2293 35.1666 55 35.1666C54.7708 35.1666 54.5625 35.3008 54.4686 35.5096L53.0295 38.6958L49.7039 38.96C49.4759 38.9781 49.2793 39.128 49.2017 39.3433C49.1241 39.5585 49.1789 39.7995 49.3429 39.9593L51.8004 42.355L50.9313 46.1187C50.8776 46.3515 50.9715 46.5935 51.1681 46.7295C51.2684 46.7983 51.3839 46.8333 51.5 46.8333C51.6126 46.8333 51.7258 46.8006 51.8238 46.7353L55 44.6178L58.1763 46.7353C58.3793 46.8706 58.6459 46.8654 58.8442 46.7213C59.0414 46.5772 59.1283 46.3246 59.0612 46.0901L57.9943 42.3568L60.6403 39.9756C60.8135 39.8193 60.8771 39.5755 60.8024 39.3544Z" fill="#FFBA08"/>
<path d="M76.8024 39.3544C76.7272 39.1339 76.5283 38.9781 76.2961 38.96L72.9705 38.6958L71.5314 35.5102C71.4375 35.3008 71.2293 35.1666 71 35.1666C70.7708 35.1666 70.5625 35.3008 70.4686 35.5096L69.0295 38.6958L65.7039 38.96C65.4759 38.9781 65.2793 39.128 65.2017 39.3433C65.1241 39.5585 65.1789 39.7995 65.3429 39.9593L67.8004 42.355L66.9313 46.1187C66.8776 46.3515 66.9715 46.5935 67.1681 46.7295C67.2684 46.7983 67.3839 46.8333 67.5 46.8333C67.6126 46.8333 67.7258 46.8006 67.8238 46.7353L71 44.6178L74.1763 46.7353C74.3793 46.8706 74.6459 46.8654 74.8442 46.7213C75.0414 46.5772 75.1283 46.3246 75.0612 46.0901L73.9943 42.3568L76.6403 39.9756C76.8135 39.8193 76.8771 39.5755 76.8024 39.3544Z" fill="#FFBA08"/>
<path d="M5.736 19.24C4.92533 19.24 4.19467 19.0987 3.544 18.816C2.89333 18.5333 2.33867 18.1307 1.88 17.608C1.42667 17.0853 1.08 16.456 0.84 15.72C0.6 14.9787 0.48 14.152 0.48 13.24C0.48 12.0347 0.688 10.984 1.104 10.088C1.52533 9.18667 2.128 8.488 2.912 7.992C3.696 7.496 4.63733 7.248 5.736 7.248C6.96267 7.248 7.96 7.536 8.728 8.112C9.50133 8.68267 10.04 9.45067 10.344 10.416L9.16 10.704C8.90933 10 8.496 9.43733 7.92 9.016C7.34933 8.59467 6.63733 8.384 5.784 8.384C4.88267 8.37867 4.13333 8.58133 3.536 8.992C2.93867 9.39733 2.488 9.968 2.184 10.704C1.88533 11.4347 1.73333 12.28 1.728 13.24C1.72267 14.2 1.86933 15.0453 2.168 15.776C2.472 16.5013 2.92533 17.072 3.528 17.488C4.13067 17.8987 4.88267 18.1067 5.784 18.112C6.61067 18.112 7.29333 17.952 7.832 17.632C8.37067 17.312 8.77867 16.8533 9.056 16.256C9.33867 15.6587 9.49867 14.952 9.536 14.136H6.88V13.128H10.768C10.784 13.2507 10.792 13.3813 10.792 13.52C10.7973 13.6533 10.8 13.7493 10.8 13.808C10.8 14.848 10.6133 15.7787 10.24 16.6C9.86667 17.416 9.304 18.0613 8.552 18.536C7.80533 19.0053 6.86667 19.24 5.736 19.24ZM16.0093 19.24C15.1506 19.24 14.4173 19.0453 13.8093 18.656C13.2013 18.2667 12.7346 17.728 12.4093 17.04C12.0839 16.352 11.9213 15.5627 11.9213 14.672C11.9213 13.7653 12.0866 12.9707 12.4173 12.288C12.7479 11.6053 13.2173 11.0747 13.8253 10.696C14.4386 10.312 15.1666 10.12 16.0093 10.12C16.8733 10.12 17.6093 10.3147 18.2173 10.704C18.8306 11.088 19.2973 11.624 19.6173 12.312C19.9426 12.9947 20.1053 13.7813 20.1053 14.672C20.1053 15.5787 19.9426 16.376 19.6173 17.064C19.2919 17.7467 18.8226 18.28 18.2093 18.664C17.5959 19.048 16.8626 19.24 16.0093 19.24ZM16.0093 18.112C16.9693 18.112 17.6839 17.7947 18.1533 17.16C18.6226 16.52 18.8573 15.6907 18.8573 14.672C18.8573 13.6267 18.6199 12.7947 18.1453 12.176C17.6759 11.5573 16.9639 11.248 16.0093 11.248C15.3639 11.248 14.8306 11.3947 14.4093 11.688C13.9933 11.976 13.6813 12.3787 13.4733 12.896C13.2706 13.408 13.1693 14 13.1693 14.672C13.1693 15.712 13.4093 16.5467 13.8893 17.176C14.3693 17.8 15.0759 18.112 16.0093 18.112ZM25.478 19.24C24.6193 19.24 23.886 19.0453 23.278 18.656C22.67 18.2667 22.2033 17.728 21.878 17.04C21.5527 16.352 21.39 15.5627 21.39 14.672C21.39 13.7653 21.5553 12.9707 21.886 12.288C22.2167 11.6053 22.686 11.0747 23.294 10.696C23.9073 10.312 24.6353 10.12 25.478 10.12C26.342 10.12 27.078 10.3147 27.686 10.704C28.2993 11.088 28.766 11.624 29.086 12.312C29.4113 12.9947 29.574 13.7813 29.574 14.672C29.574 15.5787 29.4113 16.376 29.086 17.064C28.7607 17.7467 28.2913 18.28 27.678 18.664C27.0647 19.048 26.3313 19.24 25.478 19.24ZM25.478 18.112C26.438 18.112 27.1527 17.7947 27.622 17.16C28.0913 16.52 28.326 15.6907 28.326 14.672C28.326 13.6267 28.0887 12.7947 27.614 12.176C27.1447 11.5573 26.4327 11.248 25.478 11.248C24.8327 11.248 24.2993 11.3947 23.878 11.688C23.462 11.976 23.15 12.3787 22.942 12.896C22.7393 13.408 22.638 14 22.638 14.672C22.638 15.712 22.878 16.5467 23.358 17.176C23.838 17.8 24.5447 18.112 25.478 18.112ZM34.7708 23.08C34.3281 23.08 33.8908 23.0133 33.4588 22.88C33.0321 22.752 32.6374 22.5467 32.2747 22.264C31.9121 21.9867 31.6081 21.624 31.3628 21.176L32.4268 20.584C32.6668 21.064 33.0028 21.408 33.4348 21.616C33.8721 21.8293 34.3174 21.936 34.7708 21.936C35.3948 21.936 35.8988 21.8187 36.2828 21.584C36.6721 21.3547 36.9548 21.0133 37.1308 20.56C37.3068 20.1067 37.3921 19.5413 37.3868 18.864V16.56H37.5228V10.36H38.5708V18.88C38.5708 19.1253 38.5628 19.36 38.5468 19.584C38.5361 19.8133 38.5121 20.0373 38.4748 20.256C38.3734 20.9013 38.1628 21.432 37.8428 21.848C37.5281 22.264 37.1121 22.5733 36.5948 22.776C36.0828 22.9787 35.4748 23.08 34.7708 23.08ZM34.6908 19.24C33.8854 19.24 33.1974 19.04 32.6268 18.64C32.0561 18.2347 31.6188 17.688 31.3148 17C31.0108 16.312 30.8588 15.536 30.8588 14.672C30.8588 13.8133 31.0081 13.04 31.3068 12.352C31.6108 11.664 32.0454 11.12 32.6108 10.72C33.1761 10.32 33.8534 10.12 34.6428 10.12C35.4534 10.12 36.1361 10.3173 36.6908 10.712C37.2454 11.1067 37.6641 11.648 37.9468 12.336C38.2348 13.0187 38.3788 13.7973 38.3788 14.672C38.3788 15.5307 38.2374 16.3067 37.9548 17C37.6721 17.688 37.2561 18.2347 36.7068 18.64C36.1574 19.04 35.4854 19.24 34.6908 19.24ZM34.8108 18.144C35.4241 18.144 35.9308 17.9947 36.3308 17.696C36.7308 17.3973 37.0294 16.9867 37.2268 16.464C37.4241 15.936 37.5228 15.3387 37.5228 14.672C37.5228 13.9947 37.4241 13.3973 37.2268 12.88C37.0294 12.3573 36.7308 11.9493 36.3308 11.656C35.9361 11.3627 35.4374 11.216 34.8348 11.216C34.2161 11.216 33.7041 11.368 33.2988 11.672C32.8934 11.976 32.5921 12.3893 32.3948 12.912C32.2028 13.4347 32.1068 14.0213 32.1068 14.672C32.1068 15.328 32.2054 15.92 32.4028 16.448C32.6054 16.9707 32.9068 17.384 33.3068 17.688C33.7068 17.992 34.2081 18.144 34.8108 18.144ZM40.9675 19V7.24H42.1435V19H40.9675ZM48.1979 19.24C47.3552 19.24 46.6245 19.0533 46.0059 18.68C45.3925 18.3067 44.9152 17.7813 44.5739 17.104C44.2325 16.4267 44.0619 15.632 44.0619 14.72C44.0619 13.776 44.2299 12.96 44.5659 12.272C44.9019 11.584 45.3739 11.0533 45.9819 10.68C46.5952 10.3067 47.3179 10.12 48.1499 10.12C49.0032 10.12 49.7312 10.3173 50.3339 10.712C50.9365 11.1013 51.3925 11.6613 51.7019 12.392C52.0112 13.1227 52.1525 13.9947 52.1259 15.008H50.9259V14.592C50.9045 13.472 50.6619 12.6267 50.1979 12.056C49.7392 11.4853 49.0672 11.2 48.1819 11.2C47.2539 11.2 46.5419 11.5013 46.0459 12.104C45.5552 12.7067 45.3099 13.5653 45.3099 14.68C45.3099 15.768 45.5552 16.6133 46.0459 17.216C46.5419 17.8133 47.2432 18.112 48.1499 18.112C48.7685 18.112 49.3072 17.9707 49.7659 17.688C50.2299 17.4 50.5952 16.9867 50.8619 16.448L51.9579 16.872C51.6165 17.624 51.1125 18.208 50.4459 18.624C49.7845 19.0347 49.0352 19.24 48.1979 19.24ZM44.8939 15.008V14.024H51.4939V15.008H44.8939ZM57.1044 19V7.48H61.5524C61.6644 7.48 61.7897 7.48533 61.9284 7.496C62.0724 7.50133 62.2164 7.51733 62.3604 7.544C62.963 7.63467 63.4724 7.84533 63.8884 8.176C64.3097 8.50133 64.627 8.912 64.8404 9.408C65.059 9.904 65.1684 10.4533 65.1684 11.056C65.1684 11.6533 65.059 12.2 64.8404 12.696C64.6217 13.192 64.3017 13.6053 63.8804 13.936C63.4644 14.2613 62.9577 14.4693 62.3604 14.56C62.2164 14.5813 62.0724 14.5973 61.9284 14.608C61.7897 14.6187 61.6644 14.624 61.5524 14.624H58.2804V19H57.1044ZM58.2804 13.504H61.5204C61.6164 13.504 61.7284 13.4987 61.8564 13.488C61.9844 13.4773 62.1097 13.4587 62.2324 13.432C62.627 13.3467 62.9497 13.184 63.2004 12.944C63.4564 12.704 63.6457 12.4187 63.7684 12.088C63.8964 11.7573 63.9604 11.4133 63.9604 11.056C63.9604 10.6987 63.8964 10.3547 63.7684 10.024C63.6457 9.688 63.4564 9.4 63.2004 9.16C62.9497 8.92 62.627 8.75733 62.2324 8.672C62.1097 8.64533 61.9844 8.62933 61.8564 8.624C61.7284 8.61333 61.6164 8.608 61.5204 8.608H58.2804V13.504ZM66.9206 19V7.24H68.0966V19H66.9206ZM72.967 19.24C72.3163 19.24 71.7697 19.1227 71.327 18.888C70.8897 18.6533 70.5617 18.3413 70.343 17.952C70.1243 17.5627 70.015 17.1387 70.015 16.68C70.015 16.2107 70.1083 15.8107 70.295 15.48C70.487 15.144 70.7457 14.8693 71.071 14.656C71.4017 14.4427 71.783 14.28 72.215 14.168C72.6523 14.0613 73.135 13.968 73.663 13.888C74.1963 13.8027 74.7163 13.7307 75.223 13.672C75.735 13.608 76.183 13.5467 76.567 13.488L76.151 13.744C76.167 12.8907 76.0017 12.2587 75.655 11.848C75.3083 11.4373 74.7057 11.232 73.847 11.232C73.255 11.232 72.7537 11.3653 72.343 11.632C71.9377 11.8987 71.6523 12.32 71.487 12.896L70.343 12.56C70.5403 11.7867 70.9377 11.1867 71.535 10.76C72.1323 10.3333 72.9083 10.12 73.863 10.12C74.6523 10.12 75.3217 10.2693 75.871 10.568C76.4257 10.8613 76.8177 11.288 77.047 11.848C77.1537 12.0987 77.223 12.3787 77.255 12.688C77.287 12.9973 77.303 13.312 77.303 13.632V19H76.255V16.832L76.559 16.96C76.2657 17.7013 75.8097 18.2667 75.191 18.656C74.5723 19.0453 73.831 19.24 72.967 19.24ZM73.103 18.224C73.6523 18.224 74.1323 18.1253 74.543 17.928C74.9537 17.7307 75.2843 17.4613 75.535 17.12C75.7857 16.7733 75.9483 16.384 76.023 15.952C76.087 15.6747 76.1217 15.3707 76.127 15.04C76.1323 14.704 76.135 14.4533 76.135 14.288L76.583 14.52C76.183 14.5733 75.7483 14.6267 75.279 14.68C74.815 14.7333 74.3563 14.7947 73.903 14.864C73.455 14.9333 73.0497 15.016 72.687 15.112C72.4417 15.1813 72.2043 15.28 71.975 15.408C71.7457 15.5307 71.5563 15.696 71.407 15.904C71.263 16.112 71.191 16.3707 71.191 16.68C71.191 16.9307 71.2523 17.1733 71.375 17.408C71.503 17.6427 71.7057 17.8373 71.983 17.992C72.2657 18.1467 72.639 18.224 73.103 18.224ZM80.1332 22.84L81.8053 18.304L81.8293 19.648L78.0452 10.36H79.2933L82.3973 18.128H81.8853L84.7493 10.36H85.9493L81.3093 22.84H80.1332Z" fill="#9397AD"/>
</svg>
